<svg width="828" height="828" viewBox="0 0 828 828" fill="none" xmlns="http://www.w3.org/2000/svg">
<path d="M759 0H69C50.7065 0.0209216 33.1682 7.29726 20.2327 20.2327C7.29726 33.1682 0.0209216 50.7065 0 69V759C0.0209216 777.293 7.29726 794.832 20.2327 807.767C33.1682 820.702 50.7065 827.979 69 828H537.71C546.775 828.025 555.755 826.251 564.13 822.782C572.505 819.313 580.108 814.217 586.5 807.789L807.789 586.5C814.216 580.108 819.312 572.504 822.781 564.13C826.25 555.755 828.024 546.775 828 537.71V69C827.979 50.7065 820.702 33.1682 807.767 20.2327C794.832 7.29726 777.293 0.0209216 759 0ZM552 744.71V551.966H744.745L552 744.71Z" fill="#E0E0E0"/>
</svg>
