<svg width="1194" height="1194" viewBox="0 0 1194 1194" fill="none" xmlns="http://www.w3.org/2000/svg">
<rect width="1194" height="1194" fill="#1C1C1C"/>
<path d="M942 183H252C233.706 183.021 216.168 190.297 203.233 203.233C190.297 216.168 183.021 233.706 183 252V942C183.021 960.293 190.297 977.832 203.233 990.767C216.168 1003.7 233.706 1010.98 252 1011H720.71C729.775 1011.02 738.755 1009.25 747.13 1005.78C755.505 1002.31 763.108 997.217 769.5 990.789L990.789 769.5C997.216 763.108 1002.31 755.504 1005.78 747.13C1009.25 738.755 1011.02 729.775 1011 720.71V252C1010.98 233.706 1003.7 216.168 990.767 203.233C977.832 190.297 960.293 183.021 942 183ZM735 927.71V734.966H927.745L735 927.71Z" fill="#E0E0E0"/>
</svg>
